<svg width="2092" height="2039" xmlns="http://www.w3.org/2000/svg" xmlns:xlink="http://www.w3.org/1999/xlink" xml:space="preserve" overflow="hidden"><defs><clipPath id="clip0"><rect x="32" y="375" width="2092" height="2039"/></clipPath><clipPath id="clip1"><rect x="371" y="522" width="1363" height="1045"/></clipPath><clipPath id="clip2"><rect x="371" y="522" width="1363" height="1045"/></clipPath></defs><g clip-path="url(#clip0)" transform="translate(-32 -375)"><path d="M42.5001 585.955C42.5001 476.351 131.351 387.5 240.955 387.5L1915.04 387.5C2024.65 387.5 2113.5 476.351 2113.5 585.955L2113.5 2205.04C2113.5 2314.65 2024.65 2403.5 1915.04 2403.5L240.955 2403.5C131.351 2403.5 42.5001 2314.65 42.5001 2205.04Z" stroke="#FF6963" stroke-width="20.625" stroke-miterlimit="8" fill="#FEF3F2" fill-rule="evenodd" fill-opacity="0"/><g clip-path="url(#clip1)"><g clip-path="url(#clip2)"><g><path d="M0 0 3215.37 0 3215.37 2250.76 0 2250.76Z" fill="#FFFFFF" transform="matrix(1 0 0 1.00044 242.903 -67.5297)"/><text fill="#333333" font-family="Arial,Arial_MSFontService,sans-serif" font-weight="700" font-size="20" transform="matrix(3.21537 0 0 3.21678 885.977 190)">Traditional AI Model</text><text fill="#666666" font-family="Arial,Arial_MSFontService,sans-serif" font-weight="400" font-size="14" transform="matrix(3.21537 0 0 3.21678 660.901 254)">Requires retraining after system changes</text><path d="M0 803.843 1286.15 803.843" stroke="#666666" stroke-width="6.43075" fill="none" transform="matrix(1 0 0 1.00044 403.671 93.3094)"/><path d="M0 160.769 0 1446.92" stroke="#666666" stroke-width="6.43075" fill="none" transform="matrix(1 0 0 1.00044 403.671 93.3094)"/><path d="M0 803.843C53.5897 696.665 107.179 664.512 160.769 707.382 214.358 750.253 267.948 728.819 321.537 643.075" stroke="#999999" stroke-width="6.43075" stroke-dasharray="16.0769 16.0769" fill="none" transform="matrix(1 0 0 1.00044 403.671 93.3094)"/><path d="M321.537 643.075C375.128 964.612 428.715 1093.23 482.306 1028.92 535.897 964.612 589.484 996.766 643.075 1125.38" stroke="#999999" stroke-width="6.43075" stroke-dasharray="16.0769 16.0769" fill="none" transform="matrix(1 0 0 1.00044 403.671 93.3094)"/><path d="M643.075 1125.38C696.665 696.665 750.253 514.46 803.843 578.767 857.434 643.075 911.021 610.921 964.612 482.306" stroke="#999999" stroke-width="6.43075" stroke-dasharray="16.0769 16.0769" fill="none" transform="matrix(1 0 0 1.00044 403.671 93.3094)"/><path d="M964.612 482.306C1018.2 803.843 1071.79 943.175 1125.38 900.305 1178.97 857.434 1232.56 878.868 1286.15 964.612" stroke="#999999" stroke-width="6.43075" stroke-dasharray="16.0769 16.0769" fill="none" transform="matrix(1 0 0 1.00044 403.671 93.3094)"/><path d="M0 803.843 321.537 707.382" stroke="#FF6B6B" stroke-width="9.64612" fill="none" transform="matrix(1 0 0 1.00044 403.671 93.3094)"/><path d="M321.537 707.382 321.537 1286.15 482.306 1028.92" stroke="#FF6B6B" stroke-width="9.64612" fill="none" transform="matrix(1 0 0 1.00044 403.671 93.3094)"/><path d="M643.075 1028.92 643.075 1446.92 803.843 578.767" stroke="#FF6B6B" stroke-width="9.64612" fill="none" transform="matrix(1 0 0 1.00044 403.671 93.3094)"/><path d="M964.612 578.767 964.612 1286.15 1125.38 900.305" stroke="#FF6B6B" stroke-width="9.64612" fill="none" transform="matrix(1 0 0 1.00044 403.671 93.3094)"/><path d="M337.614 1286.15C337.614 1295.03 330.416 1302.23 321.537 1302.23 312.658 1302.23 305.46 1295.03 305.46 1286.15 305.46 1277.27 312.658 1270.07 321.537 1270.07 330.416 1270.07 337.614 1277.27 337.614 1286.15Z" fill="#FF6B6B" transform="matrix(1 0 0 1.00044 403.671 93.3094)"/><text fill="#666666" font-family="Arial,Arial_MSFontService,sans-serif" font-weight="400" font-size="12" transform="matrix(3.21537 0 0 3.21678 596.594 1444)">Retraining needed</text><path d="M659.152 1446.92C659.152 1455.8 651.954 1462.99 643.075 1462.99 634.196 1462.99 626.998 1455.8 626.998 1446.92 626.998 1438.04 634.196 1430.84 643.075 1430.84 651.954 1430.84 659.152 1438.04 659.152 1446.92Z" fill="#FF6B6B" transform="matrix(1 0 0 1.00044 403.671 93.3094)"/><text fill="#666666" font-family="Arial,Arial_MSFontService,sans-serif" font-weight="400" font-size="12" transform="matrix(3.21537 0 0 3.21678 918.131 1605)">Retraining needed</text><path d="M980.689 1286.15C980.689 1295.03 973.491 1302.23 964.612 1302.23 955.733 1302.23 948.535 1295.03 948.535 1286.15 948.535 1277.27 955.733 1270.07 964.612 1270.07 973.491 1270.07 980.689 1277.27 980.689 1286.15Z" fill="#FF6B6B" transform="matrix(1 0 0 1.00044 403.671 93.3094)"/><text fill="#666666" font-family="Arial,Arial_MSFontService,sans-serif" font-weight="400" font-size="12" transform="matrix(3.21537 0 0 3.21678 1239.67 1444)">Retraining needed</text><path d="M321.537 321.537 321.537 1286.15" stroke="#666666" stroke-width="3.21537" stroke-dasharray="16.0769 16.0769" fill="none" transform="matrix(1 0 0 1.00044 403.671 93.3094)"/><text fill="#666666" font-family="Arial,Arial_MSFontService,sans-serif" font-weight="400" font-size="12" transform="matrix(3.21537 0 0 3.21678 676.978 383)">System</text><text fill="#666666" font-family="Arial,Arial_MSFontService,sans-serif" font-weight="400" font-size="12" transform="matrix(3.21537 0 0 3.21678 676.978 431)">Change</text><path d="M643.075 321.537 643.075 1446.92" stroke="#666666" stroke-width="3.21537" stroke-dasharray="16.0769 16.0769" fill="none" transform="matrix(1 0 0 1.00044 403.671 93.3094)"/><text fill="#666666" font-family="Arial,Arial_MSFontService,sans-serif" font-weight="400" font-size="12" transform="matrix(3.21537 0 0 3.21678 998.515 383)">System</text><text fill="#666666" font-family="Arial,Arial_MSFontService,sans-serif" font-weight="400" font-size="12" transform="matrix(3.21537 0 0 3.21678 998.515 431)">Change</text><path d="M964.612 321.537 964.612 1286.15" stroke="#666666" stroke-width="3.21537" stroke-dasharray="16.0769 16.0769" fill="none" transform="matrix(1 0 0 1.00044 403.671 93.3094)"/><text fill="#666666" font-family="Arial,Arial_MSFontService,sans-serif" font-weight="400" font-size="12" transform="matrix(3.21537 0 0 3.21678 1320.05 383)">System</text><text fill="#666666" font-family="Arial,Arial_MSFontService,sans-serif" font-weight="400" font-size="12" transform="matrix(3.21537 0 0 3.21678 1320.05 431)">Change</text><text fill="#333333" font-family="Arial,Arial_MSFontService,sans-serif" font-weight="700" font-size="20" transform="matrix(3.21537 0 0 3.21678 2332.9 190)">Neuro</text><text fill="#333333" font-family="Arial,Arial_MSFontService,sans-serif" font-weight="700" font-size="20" transform="matrix(3.21537 0 0 3.21678 2516.17 190)">-</text><text fill="#333333" font-family="Arial,Arial_MSFontService,sans-serif" font-weight="700" font-size="20" transform="matrix(3.21537 0 0 3.21678 2538.68 190)">Adaptive Dynamical AI</text><text fill="#666666" font-family="Arial,Arial_MSFontService,sans-serif" font-weight="400" font-size="14" transform="matrix(3.21537 0 0 3.21678 2107.82 254)">Rapidly adapts to system changes</text><path d="M0 803.843 1286.15 803.843" stroke="#666666" stroke-width="6.43075" fill="none" transform="matrix(1 0 0 1.00044 1850.59 93.3094)"/><path d="M0 160.769 0 1446.92" stroke="#666666" stroke-width="6.43075" fill="none" transform="matrix(1 0 0 1.00044 1850.59 93.3094)"/><path d="M0 803.843C53.5897 696.665 107.179 664.512 160.769 707.382 214.358 750.253 267.948 728.819 321.537 643.075" stroke="#999999" stroke-width="6.43075" stroke-dasharray="16.0769 16.0769" fill="none" transform="matrix(1 0 0 1.00044 1850.59 93.3094)"/><path d="M321.537 643.075C375.128 964.612 428.715 1093.23 482.306 1028.92 535.897 964.612 589.484 996.766 643.075 1125.38" stroke="#999999" stroke-width="6.43075" stroke-dasharray="16.0769 16.0769" fill="none" transform="matrix(1 0 0 1.00044 1850.59 93.3094)"/><path d="M643.075 1125.38C696.665 696.665 750.253 514.46 803.843 578.767 857.434 643.075 911.021 610.921 964.612 482.306" stroke="#999999" stroke-width="6.43075" stroke-dasharray="16.0769 16.0769" fill="none" transform="matrix(1 0 0 1.00044 1850.59 93.3094)"/><path d="M964.612 482.306C1018.2 803.843 1071.79 943.175 1125.38 900.305 1178.97 857.434 1232.56 878.868 1286.15 964.612" stroke="#999999" stroke-width="6.43075" stroke-dasharray="16.0769 16.0769" fill="none" transform="matrix(1 0 0 1.00044 1850.59 93.3094)"/><path d="M0 803.843C53.5897 696.665 107.179 664.512 160.769 707.382 214.358 750.253 267.948 728.819 321.537 643.075" stroke="#4CAF50" stroke-width="9.64612" fill="none" transform="matrix(1 0 0 1.00044 1850.59 93.3094)"/><path d="M321.537 643.075C353.691 739.536 385.845 835.997 417.999 1028.92 450.152 1125.38 482.306 1061.07 514.46 1045 546.613 1028.92 578.767 1093.23 643.075 1125.38" stroke="#4CAF50" stroke-width="9.64612" fill="none" transform="matrix(1 0 0 1.00044 1850.59 93.3094)"/><path d="M643.075 1125.38C675.228 964.612 707.382 643.075 739.536 578.767 771.69 546.613 803.843 562.69 835.997 546.613 868.151 530.537 900.305 498.383 964.612 482.306" stroke="#4CAF50" stroke-width="9.64612" fill="none" transform="matrix(1 0 0 1.00044 1850.59 93.3094)"/><path d="M964.612 482.306C996.766 578.767 1028.92 803.843 1061.07 900.305 1093.23 932.458 1125.38 916.381 1157.53 932.458 1189.69 948.535 1221.84 958.181 1286.15 964.612" stroke="#4CAF50" stroke-width="9.64612" fill="none" transform="matrix(1 0 0 1.00044 1850.59 93.3094)"/><path d="M-16.0769-16.0769C0-48.2306 32.1537-48.2306 48.2306-16.0769" stroke="#4CAF50" stroke-width="6.43075" fill="none" transform="matrix(1 0 0 1.00044 2188.2 833.169)"/><path d="M54.6613-16.0769C54.6613-12.5253 51.7822-9.64612 48.2306-9.64612 44.679-9.64612 41.7999-12.5253 41.7999-16.0769 41.7999-19.6285 44.679-22.5076 48.2306-22.5076 51.7822-22.5076 54.6613-19.6285 54.6613-16.0769Z" fill="#4CAF50" transform="matrix(1 0 0 1.00044 2188.2 833.169)"/><text fill="#4CAF50" font-family="Arial,Arial_MSFontService,sans-serif" font-weight="400" font-size="10" transform="matrix(3.21537 0 0 3.21678 2252.51 833)">Rapid</text><text fill="#4CAF50" font-family="Arial,Arial_MSFontService,sans-serif" font-weight="400" font-size="10" transform="matrix(3.21537 0 0 3.21678 2252.51 872)">Adaptation</text><path d="M-16.0769-16.0769C0-48.2306 32.1537-48.2306 48.2306-16.0769" stroke="#4CAF50" stroke-width="6.43075" fill="none" transform="matrix(1 0 0 1.00044 2509.74 1122.68)"/><path d="M54.6613-16.0769C54.6613-12.5253 51.7822-9.64612 48.2306-9.64612 44.679-9.64612 41.7999-12.5253 41.7999-16.0769 41.7999-19.6285 44.679-22.5076 48.2306-22.5076 51.7822-22.5076 54.6613-19.6285 54.6613-16.0769Z" fill="#4CAF50" transform="matrix(1 0 0 1.00044 2509.74 1122.68)"/><text fill="#4CAF50" font-family="Arial,Arial_MSFontService,sans-serif" font-weight="400" font-size="10" transform="matrix(3.21537 0 0 3.21678 2574.05 1123)">Rapid</text><text fill="#4CAF50" font-family="Arial,Arial_MSFontService,sans-serif" font-weight="400" font-size="10" transform="matrix(3.21537 0 0 3.21678 2574.05 1161)">Adaptation</text><path d="M-16.0769-16.0769C0-48.2306 32.1537-48.2306 48.2306-16.0769" stroke="#4CAF50" stroke-width="6.43075" fill="none" transform="matrix(1 0 0 1.00044 2831.28 672.33)"/><path d="M54.6613-16.0769C54.6613-12.5253 51.7822-9.64612 48.2306-9.64612 44.679-9.64612 41.7999-12.5253 41.7999-16.0769 41.7999-19.6285 44.679-22.5076 48.2306-22.5076 51.7822-22.5076 54.6613-19.6285 54.6613-16.0769Z" fill="#4CAF50" transform="matrix(1 0 0 1.00044 2831.28 672.33)"/><text fill="#4CAF50" font-family="Arial,Arial_MSFontService,sans-serif" font-weight="400" font-size="10" transform="matrix(3.21537 0 0 3.21678 2895.59 672)">Rapid</text><text fill="#4CAF50" font-family="Arial,Arial_MSFontService,sans-serif" font-weight="400" font-size="10" transform="matrix(3.21537 0 0 3.21678 2895.59 711)">Adaptation</text><path d="M321.537 321.537 321.537 1286.15" stroke="#666666" stroke-width="3.21537" stroke-dasharray="16.0769 16.0769" fill="none" transform="matrix(1 0 0 1.00044 1850.59 93.3094)"/><path d="M643.075 321.537 643.075 1446.92" stroke="#666666" stroke-width="3.21537" stroke-dasharray="16.0769 16.0769" fill="none" transform="matrix(1 0 0 1.00044 1850.59 93.3094)"/><path d="M964.612 321.537 964.612 1286.15" stroke="#666666" stroke-width="3.21537" stroke-dasharray="16.0769 16.0769" fill="none" transform="matrix(1 0 0 1.00044 1850.59 93.3094)"/><text fill="#666666" font-family="Arial,Arial_MSFontService,sans-serif" font-weight="400" font-size="16" transform="matrix(3.21537 0 0 3.21678 1434.2 1605)">System Changes Example Scenarios</text><path d="M2556.22 64.3075C2565.1 64.3075 2572.3 71.5053 2572.3 80.3843L2572.3 305.46C2572.3 314.339 2565.1 321.537 2556.22 321.537L337.614 321.537C328.735 321.537 321.537 314.339 321.537 305.46L321.537 80.3843C321.537 71.5053 328.735 64.3075 337.614 64.3075Z" stroke="#666666" stroke-width="3.21537" fill="#FFFFFF" transform="matrix(1 0 0 1.00044 403.671 1605.2)"/><text fill="#333333" font-family="Arial,Arial_MSFontService,sans-serif" font-weight="400" font-size="14" transform="matrix(3.21537 0 0 3.21678 789.516 1750)">• </text><text fill="#333333" font-family="Arial,Arial_MSFontService,sans-serif" font-weight="400" font-size="14" transform="matrix(3.21537 0 0 3.21678 818.455 1750)">Unexpected Weather</text><text fill="#333333" font-family="Arial,Arial_MSFontService,sans-serif" font-weight="400" font-size="14" transform="matrix(3.21537 0 0 3.21678 1242.88 1750)">: </text><text fill="#333333" font-family="Arial,Arial_MSFontService,sans-serif" font-weight="400" font-size="14" transform="matrix(3.21537 0 0 3.21678 1268.61 1750)">Autonomous vehicles adapting to severe weather conditions</text><text fill="#333333" font-family="Arial,Arial_MSFontService,sans-serif" font-weight="400" font-size="14" transform="matrix(3.21537 0 0 3.21678 789.516 1830)">• </text><text fill="#333333" font-family="Arial,Arial_MSFontService,sans-serif" font-weight="400" font-size="14" transform="matrix(3.21537 0 0 3.21678 818.455 1830)">Hardware Changes</text><text fill="#333333" font-family="Arial,Arial_MSFontService,sans-serif" font-weight="400" font-size="14" transform="matrix(3.21537 0 0 3.21678 1207.51 1830)">: </text><text fill="#333333" font-family="Arial,Arial_MSFontService,sans-serif" font-weight="400" font-size="14" transform="matrix(3.21537 0 0 3.21678 1233.24 1830)">Robots adjusting to sensor degradation or failures</text><text fill="#333333" font-family="Arial,Arial_MSFontService,sans-serif" font-weight="400" font-size="14" transform="matrix(3.21537 0 0 3.21678 789.516 1911)">• </text><text fill="#333333" font-family="Arial,Arial_MSFontService,sans-serif" font-weight="400" font-size="14" transform="matrix(3.21537 0 0 3.21678 818.455 1911)">Environmental Shifts</text><text fill="#333333" font-family="Arial,Arial_MSFontService,sans-serif" font-weight="400" font-size="14" transform="matrix(3.21537 0 0 3.21678 1233.24 1911)">: </text><text fill="#333333" font-family="Arial,Arial_MSFontService,sans-serif" font-weight="400" font-size="14" transform="matrix(3.21537 0 0 3.21678 1258.96 1911)">Space exploration systems handling new terrain conditions</text></g></g></g><g><g><g><path d="M238.642 1753.43 233.277 1769.53 245.508 1781.76 261.602 1776.39C265.872 1778.78 270.41 1780.66 275.121 1781.97L282.631 1796.99 299.798 1796.99 307.308 1781.97C311.964 1780.69 316.436 1778.82 320.612 1776.39L336.706 1781.76 348.937 1769.53 343.573 1753.43C345.96 1749.16 347.833 1744.63 349.152 1739.92L364.173 1732.41 364.173 1715.24 348.937 1707.94C347.656 1703.29 345.781 1698.82 343.358 1694.64L348.723 1678.54 336.492 1666.31 320.398 1671.68C316.128 1669.29 311.59 1667.42 306.879 1666.1L299.583 1651.04 282.417 1651.04 274.906 1666.06C270.25 1667.34 265.779 1669.22 261.602 1671.64L245.508 1666.28 233.277 1678.51 238.642 1694.6C236.255 1698.87 234.382 1703.41 233.062 1708.12L218.042 1715.42 218.042 1732.58 233.062 1740.09C234.341 1744.76 236.216 1749.25 238.642 1753.43ZM222.333 1718.13 234.938 1712 236.691 1711.15 237.204 1709.27C238.436 1704.88 240.181 1700.66 242.403 1696.68L243.307 1695.04 242.714 1693.26 238.187 1679.68 246.669 1671.19 260.246 1675.72 262.081 1676.33 263.754 1675.36C267.61 1673.12 271.738 1671.39 276.037 1670.21L277.889 1669.71 278.747 1667.99 285.073 1655.33 296.901 1655.33 303.017 1667.95 303.875 1669.7 305.755 1670.21C310.138 1671.45 314.361 1673.19 318.336 1675.42L319.982 1676.32 321.763 1675.73 335.339 1671.2 343.822 1679.68 339.294 1693.27 338.683 1695.1 339.652 1696.77C341.892 1700.63 343.623 1704.76 344.802 1709.06L345.32 1710.95 347.09 1711.8 359.881 1717.93 359.881 1729.75 347.232 1736.07 345.515 1736.93 345.011 1738.78C343.778 1743.17 342.033 1747.39 339.811 1751.37L338.908 1753.01 339.5 1754.79 344.028 1768.37 335.545 1776.86 321.969 1772.33 320.134 1771.72 318.46 1772.69C314.604 1774.93 310.475 1776.66 306.175 1777.84L304.326 1778.34 303.467 1780.06 297.141 1792.72 285.288 1792.72 278.964 1780.06 278.106 1778.34 276.254 1777.84C271.871 1776.61 267.649 1774.86 263.675 1772.64L262.029 1771.73 260.248 1772.33 246.671 1776.85 238.189 1768.37 242.719 1754.79 243.328 1752.96 242.36 1751.28C240.121 1747.43 238.39 1743.3 237.21 1739L236.704 1737.15 234.987 1736.29 222.333 1729.96Z" stroke="#C00000" stroke-width="2.8611" fill="#C00000"/><path d="M291 1749.79C305.221 1749.79 316.75 1738.26 316.75 1724.04 316.75 1709.82 305.221 1698.29 291 1698.29 276.779 1698.29 265.25 1709.82 265.25 1724.04 265.295 1738.24 276.797 1749.74 291 1749.79ZM291 1702.56C302.851 1702.56 312.458 1712.17 312.458 1724.02 312.458 1735.87 302.851 1745.48 291 1745.48 279.149 1745.48 269.542 1735.87 269.542 1724.02 269.557 1712.18 279.155 1702.58 291 1702.56Z" stroke="#C00000" stroke-width="2.8611" fill="#C00000"/></g></g></g><text fill="#C00000" font-family="Arial,Arial_MSFontService,sans-serif" font-weight="700" font-size="73" transform="matrix(1 0 0 1 445.5 1750)">Static Model</text><g><g><g><path d="M290.785 2041.81C257.525 2041.81 230.702 2014.99 230.702 1981.73 230.702 1948.47 257.525 1921.65 290.785 1921.65 324.046 1921.65 350.869 1948.47 350.869 1981.73L350.869 1981.73C351.083 2014.99 324.26 2041.81 290.785 2041.81ZM341.642 1929.37 348.079 1922.93C350.44 1920.36 350.44 1916.28 347.865 1913.92 345.29 1911.56 341.427 1911.35 338.852 1913.71L331.556 1921.22C321.256 1914.35 309.454 1910.06 297.223 1909.2L297.223 1900.19 316.535 1900.19 316.535 1887.31 265.035 1887.31 265.035 1900.19 284.348 1900.19 284.348 1908.99C244.006 1912.42 214.394 1948.04 217.827 1988.17 221.26 2028.29 256.881 2058.12 297.008 2054.69 337.135 2051.25 366.962 2015.63 363.529 1975.51 362.242 1957.91 354.302 1941.6 341.642 1929.37Z" stroke="#C00000" stroke-width="4.57777"/><path d="M295.077 1981.73 295.077 1930.44C293.575 1930.23 292.287 1930.23 290.785 1930.23 289.283 1930.23 287.996 1930.23 286.494 1930.44L286.494 1981.73 295.077 1981.73Z" stroke="#C00000" stroke-width="4.57777"/></g></g></g><g><g><g><path d="M256.038 2205.78 253.004 2202.74 225.799 2229.95C225.79 2229.96 225.777 2229.96 225.769 2229.95 225.765 2229.94 225.763 2229.94 225.762 2229.94 218.593 2193.9 241.99 2158.88 278.022 2151.71 308.083 2145.73 338.341 2161.06 351.294 2188.84L355.182 2187.02C338.702 2151.57 296.598 2136.18 261.141 2152.66 232.685 2165.89 216.33 2196.26 220.956 2227.3 220.959 2227.31 220.954 2227.32 220.944 2227.32 220.936 2227.33 220.926 2227.32 220.921 2227.32L196.349 2202.74 193.315 2205.78 224.677 2237.14Z" stroke="#C00000" stroke-width="8.58333"/><path d="M325.962 2232.59 328.996 2235.62 356.806 2207.81C356.815 2207.8 356.828 2207.8 356.836 2207.81 356.84 2207.81 356.842 2207.82 356.843 2207.82 362.066 2244.03 336.947 2277.62 300.739 2282.84 297.514 2283.31 294.259 2283.53 291 2283.52 266.373 2283.54 243.753 2269.94 232.223 2248.18L228.434 2250.19C246.75 2284.75 289.61 2297.91 324.165 2279.6 347.337 2267.31 361.823 2243.23 361.812 2217 361.812 2215.2 361.729 2213.41 361.598 2211.61 361.598 2211.6 361.608 2211.59 361.619 2211.59 361.624 2211.59 361.629 2211.59 361.632 2211.6L385.655 2235.63 388.689 2232.6 357.323 2201.22Z" stroke="#C00000" stroke-width="8.58333"/></g></g></g><text fill="#C00000" font-family="Arial,Arial_MSFontService,sans-serif" font-weight="700" font-size="73" transform="matrix(1 0 0 1 436.333 1953)">Static </text><text fill="#C00000" font-family="Arial,Arial_MSFontService,sans-serif" font-weight="700" font-size="73" transform="matrix(1 0 0 1 436.333 2041)">Optimization</text><text fill="#C00000" font-family="Arial,Arial_MSFontService,sans-serif" font-weight="700" font-size="73" transform="matrix(1 0 0 1 445.5 2253)">No Adaptation</text><text fill="#FF6963" font-family="Arial,Arial_MSFontService,sans-serif" font-weight="400" font-size="73" transform="matrix(1 0 0 1 1161.13 1701)">Fixed architecture unable </text><text fill="#FF6963" font-family="Arial,Arial_MSFontService,sans-serif" font-weight="400" font-size="73" transform="matrix(1 0 0 1 1161.13 1789)">to adapt to new scenarios</text><text fill="#FF6963" font-family="Arial,Arial_MSFontService,sans-serif" font-weight="400" font-size="73" transform="matrix(1 0 0 1 1161.13 1953)">Requires complete </text><text fill="#FF6963" font-family="Arial,Arial_MSFontService,sans-serif" font-weight="400" font-size="73" transform="matrix(1 0 0 1 1161.13 2041)">retraining for new conditions</text><text fill="#FF6963" font-family="Arial,Arial_MSFontService,sans-serif" font-weight="400" font-size="73" transform="matrix(1 0 0 1 1161.13 2219)">Performance degrades </text><text fill="#FF6963" font-family="Arial,Arial_MSFontService,sans-serif" font-weight="400" font-size="73" transform="matrix(1 0 0 1 1161.13 2307)">with shifts in data</text><text fill="#C00000" fill-opacity="0.8" font-family="Arial,Arial_MSFontService,sans-serif" font-weight="700" font-size="92" transform="matrix(1 0 0 1 632.752 492)">Current AI Models</text></g></svg>