<svg width="2189" height="2099" xmlns="http://www.w3.org/2000/svg" xmlns:xlink="http://www.w3.org/1999/xlink" xml:space="preserve" overflow="hidden"><defs><clipPath id="clip0"><rect x="2209" y="375" width="2189" height="2099"/></clipPath><clipPath id="clip1"><rect x="2421" y="553" width="1592" height="1011"/></clipPath><clipPath id="clip2"><rect x="2421" y="553" width="1592" height="1011"/></clipPath></defs><g clip-path="url(#clip0)" transform="translate(-2209 -375)"><rect x="3490.5" y="2070.5" width="905" height="401" stroke="#FFFFFF" stroke-width="4.58333" stroke-miterlimit="8" fill="#FFFFFF"/><path d="M2219.5 585.378C2219.5 478.302 2306.3 391.5 2413.38 391.5L4096.62 391.5C4203.7 391.5 4290.5 478.302 4290.5 585.378L4290.5 2213.62C4290.5 2320.7 4203.7 2407.5 4096.62 2407.5L2413.38 2407.5C2306.3 2407.5 2219.5 2320.7 2219.5 2213.62Z" stroke="#04813A" stroke-width="20.625" stroke-miterlimit="8" fill="#00B050" fill-rule="evenodd" fill-opacity="0"/><g clip-path="url(#clip1)"><g clip-path="url(#clip2)"><g><path d="M0 0 3620.73 0 3620.73 2534.51 0 2534.51Z" fill="#FFFFFF" transform="matrix(1 0 0 1.00098 625.334 -80.6885)"/><text fill="#333333" font-family="Arial,Arial_MSFontService,sans-serif" font-weight="700" font-size="20" transform="matrix(3.62073 0 0 3.62427 1349.48 209)">Traditional AI Model</text><text fill="#666666" font-family="Arial,Arial_MSFontService,sans-serif" font-weight="400" font-size="14" transform="matrix(3.62073 0 0 3.62427 1096.03 282)">Requires retraining after system changes</text><path d="M0 905.183 1448.29 905.183" stroke="#666666" stroke-width="7.24147" fill="none" transform="matrix(1 0 0 1.00098 806.371 100.525)"/><path d="M0 181.037 0 1629.33" stroke="#666666" stroke-width="7.24147" fill="none" transform="matrix(1 0 0 1.00098 806.371 100.525)"/><path d="M0 905.183C60.3457 784.493 120.691 748.286 181.037 796.561 241.382 844.836 301.728 820.701 362.073 724.146" stroke="#999999" stroke-width="7.24147" stroke-dasharray="18.1037 18.1037" fill="none" transform="matrix(1 0 0 1.00098 806.371 100.525)"/><path d="M362.073 724.146C422.42 1086.22 482.763 1231.05 543.11 1158.63 603.457 1086.22 663.8 1122.43 724.146 1267.26" stroke="#999999" stroke-width="7.24147" stroke-dasharray="18.1037 18.1037" fill="none" transform="matrix(1 0 0 1.00098 806.371 100.525)"/><path d="M724.146 1267.26C784.493 784.493 844.836 579.317 905.183 651.732 965.53 724.146 1025.87 687.939 1086.22 543.11" stroke="#999999" stroke-width="7.24147" stroke-dasharray="18.1037 18.1037" fill="none" transform="matrix(1 0 0 1.00098 806.371 100.525)"/><path d="M1086.22 543.11C1146.57 905.183 1206.91 1062.08 1267.26 1013.81 1327.6 965.53 1387.95 989.666 1448.29 1086.22" stroke="#999999" stroke-width="7.24147" stroke-dasharray="18.1037 18.1037" fill="none" transform="matrix(1 0 0 1.00098 806.371 100.525)"/><path d="M0 905.183 362.073 796.561" stroke="#FF6B6B" stroke-width="10.8622" fill="none" transform="matrix(1 0 0 1.00098 806.371 100.525)"/><path d="M362.073 796.561 362.073 1448.29 543.11 1158.63" stroke="#FF6B6B" stroke-width="10.8622" fill="none" transform="matrix(1 0 0 1.00098 806.371 100.525)"/><path d="M724.146 1158.63 724.146 1629.33 905.183 651.732" stroke="#FF6B6B" stroke-width="10.8622" fill="none" transform="matrix(1 0 0 1.00098 806.371 100.525)"/><path d="M1086.22 651.732 1086.22 1448.29 1267.26 1013.81" stroke="#FF6B6B" stroke-width="10.8622" fill="none" transform="matrix(1 0 0 1.00098 806.371 100.525)"/><path d="M380.177 1448.29C380.177 1458.29 372.072 1466.4 362.073 1466.4 352.075 1466.4 343.97 1458.29 343.97 1448.29 343.97 1438.29 352.075 1430.19 362.073 1430.19 372.072 1430.19 380.177 1438.29 380.177 1448.29Z" fill="#FF6B6B" transform="matrix(1 0 0 1.00098 806.371 100.525)"/><text fill="#666666" font-family="Arial,Arial_MSFontService,sans-serif" font-weight="400" font-size="12" transform="matrix(3.62073 0 0 3.62427 1023.61 1623)">Retraining needed</text><path d="M742.25 1629.33C742.25 1639.33 734.145 1647.43 724.146 1647.43 714.148 1647.43 706.043 1639.33 706.043 1629.33 706.043 1619.33 714.148 1611.23 724.146 1611.23 734.145 1611.23 742.25 1619.33 742.25 1629.33Z" fill="#FF6B6B" transform="matrix(1 0 0 1.00098 806.371 100.525)"/><text fill="#666666" font-family="Arial,Arial_MSFontService,sans-serif" font-weight="400" font-size="12" transform="matrix(3.62073 0 0 3.62427 1385.69 1804)">Retraining needed</text><path d="M1104.32 1448.29C1104.32 1458.29 1096.22 1466.4 1086.22 1466.4 1076.22 1466.4 1068.12 1458.29 1068.12 1448.29 1068.12 1438.29 1076.22 1430.19 1086.22 1430.19 1096.22 1430.19 1104.32 1438.29 1104.32 1448.29Z" fill="#FF6B6B" transform="matrix(1 0 0 1.00098 806.371 100.525)"/><text fill="#666666" font-family="Arial,Arial_MSFontService,sans-serif" font-weight="400" font-size="12" transform="matrix(3.62073 0 0 3.62427 1747.76 1623)">Retraining needed</text><path d="M362.073 362.073 362.073 1448.29" stroke="#666666" stroke-width="3.62073" stroke-dasharray="18.1037 18.1037" fill="none" transform="matrix(1 0 0 1.00098 806.371 100.525)"/><text fill="#666666" font-family="Arial,Arial_MSFontService,sans-serif" font-weight="400" font-size="12" transform="matrix(3.62073 0 0 3.62427 1114.13 427)">System</text><text fill="#666666" font-family="Arial,Arial_MSFontService,sans-serif" font-weight="400" font-size="12" transform="matrix(3.62073 0 0 3.62427 1114.13 481)">Change</text><path d="M724.146 362.073 724.146 1629.33" stroke="#666666" stroke-width="3.62073" stroke-dasharray="18.1037 18.1037" fill="none" transform="matrix(1 0 0 1.00098 806.371 100.525)"/><text fill="#666666" font-family="Arial,Arial_MSFontService,sans-serif" font-weight="400" font-size="12" transform="matrix(3.62073 0 0 3.62427 1476.21 427)">System</text><text fill="#666666" font-family="Arial,Arial_MSFontService,sans-serif" font-weight="400" font-size="12" transform="matrix(3.62073 0 0 3.62427 1476.21 481)">Change</text><path d="M1086.22 362.073 1086.22 1448.29" stroke="#666666" stroke-width="3.62073" stroke-dasharray="18.1037 18.1037" fill="none" transform="matrix(1 0 0 1.00098 806.371 100.525)"/><text fill="#666666" font-family="Arial,Arial_MSFontService,sans-serif" font-weight="400" font-size="12" transform="matrix(3.62073 0 0 3.62427 1838.28 427)">System</text><text fill="#666666" font-family="Arial,Arial_MSFontService,sans-serif" font-weight="400" font-size="12" transform="matrix(3.62073 0 0 3.62427 1838.28 481)">Change</text><text fill="#333333" font-family="Arial,Arial_MSFontService,sans-serif" font-weight="700" font-size="20" transform="matrix(3.62073 0 0 3.62427 2978.81 209)">Neuro</text><text fill="#333333" font-family="Arial,Arial_MSFontService,sans-serif" font-weight="700" font-size="20" transform="matrix(3.62073 0 0 3.62427 3185.19 209)">-</text><text fill="#333333" font-family="Arial,Arial_MSFontService,sans-serif" font-weight="700" font-size="20" transform="matrix(3.62073 0 0 3.62427 3210.54 209)">Adaptive Dynamical AI</text><text fill="#666666" font-family="Arial,Arial_MSFontService,sans-serif" font-weight="400" font-size="14" transform="matrix(3.62073 0 0 3.62427 2725.36 282)">Rapidly adapts to system changes</text><path d="M0 905.183 1448.29 905.183" stroke="#666666" stroke-width="7.24147" fill="none" transform="matrix(1 0 0 1.00098 2435.7 100.525)"/><path d="M0 181.037 0 1629.33" stroke="#666666" stroke-width="7.24147" fill="none" transform="matrix(1 0 0 1.00098 2435.7 100.525)"/><path d="M0 905.183C60.3457 784.493 120.691 748.286 181.037 796.561 241.382 844.836 301.728 820.701 362.073 724.146" stroke="#999999" stroke-width="7.24147" stroke-dasharray="18.1037 18.1037" fill="none" transform="matrix(1 0 0 1.00098 2435.7 100.525)"/><path d="M362.073 724.146C422.42 1086.22 482.763 1231.05 543.11 1158.63 603.457 1086.22 663.8 1122.43 724.146 1267.26" stroke="#999999" stroke-width="7.24147" stroke-dasharray="18.1037 18.1037" fill="none" transform="matrix(1 0 0 1.00098 2435.7 100.525)"/><path d="M724.146 1267.26C784.493 784.493 844.836 579.317 905.183 651.732 965.53 724.146 1025.87 687.939 1086.22 543.11" stroke="#999999" stroke-width="7.24147" stroke-dasharray="18.1037 18.1037" fill="none" transform="matrix(1 0 0 1.00098 2435.7 100.525)"/><path d="M1086.22 543.11C1146.57 905.183 1206.91 1062.08 1267.26 1013.81 1327.6 965.53 1387.95 989.666 1448.29 1086.22" stroke="#999999" stroke-width="7.24147" stroke-dasharray="18.1037 18.1037" fill="none" transform="matrix(1 0 0 1.00098 2435.7 100.525)"/><path d="M0 905.183C60.3457 784.493 120.691 748.286 181.037 796.561 241.382 844.836 301.728 820.701 362.073 724.146" stroke="#4CAF50" stroke-width="10.8622" fill="none" transform="matrix(1 0 0 1.00098 2435.7 100.525)"/><path d="M362.073 724.146C398.281 832.768 434.488 941.39 470.695 1158.63 506.903 1267.26 543.11 1194.84 579.317 1176.74 615.525 1158.63 651.732 1231.05 724.146 1267.26" stroke="#4CAF50" stroke-width="10.8622" fill="none" transform="matrix(1 0 0 1.00098 2435.7 100.525)"/><path d="M724.146 1267.26C760.354 1086.22 796.561 724.146 832.768 651.732 868.976 615.525 905.183 633.628 941.39 615.525 977.598 597.421 1013.81 561.214 1086.22 543.11" stroke="#4CAF50" stroke-width="10.8622" fill="none" transform="matrix(1 0 0 1.00098 2435.7 100.525)"/><path d="M1086.22 543.11C1122.43 651.732 1158.63 905.183 1194.84 1013.81 1231.05 1050.01 1267.26 1031.91 1303.46 1050.01 1339.67 1068.12 1375.88 1078.98 1448.29 1086.22" stroke="#4CAF50" stroke-width="10.8622" fill="none" transform="matrix(1 0 0 1.00098 2435.7 100.525)"/><path d="M-18.1037-18.1037C0-54.311 36.2073-54.311 54.311-18.1037" stroke="#4CAF50" stroke-width="7.24147" fill="none" transform="matrix(1 0 0 1.00098 2815.88 934.106)"/><path d="M61.5525-18.1037C61.5525-14.1043 58.3103-10.8622 54.311-10.8622 50.3116-10.8622 47.0695-14.1043 47.0695-18.1037 47.0695-22.103 50.3116-25.3451 54.311-25.3451 58.3103-25.3451 61.5525-22.103 61.5525-18.1037Z" fill="#4CAF50" transform="matrix(1 0 0 1.00098 2815.88 934.106)"/><text fill="#4CAF50" font-family="Arial,Arial_MSFontService,sans-serif" font-weight="400" font-size="10" transform="matrix(3.62073 0 0 3.62427 2888.29 934)">Rapid</text><text fill="#4CAF50" font-family="Arial,Arial_MSFontService,sans-serif" font-weight="400" font-size="10" transform="matrix(3.62073 0 0 3.62427 2888.29 978)">Adaptation</text><path d="M-18.1037-18.1037C0-54.311 36.2073-54.311 54.311-18.1037" stroke="#4CAF50" stroke-width="7.24147" fill="none" transform="matrix(1 0 0 1.00098 3177.95 1260.29)"/><path d="M61.5525-18.1037C61.5525-14.1043 58.3103-10.8622 54.311-10.8622 50.3116-10.8622 47.0695-14.1043 47.0695-18.1037 47.0695-22.103 50.3116-25.3451 54.311-25.3451 58.3103-25.3451 61.5525-22.103 61.5525-18.1037Z" fill="#4CAF50" transform="matrix(1 0 0 1.00098 3177.95 1260.29)"/><text fill="#4CAF50" font-family="Arial,Arial_MSFontService,sans-serif" font-weight="400" font-size="10" transform="matrix(3.62073 0 0 3.62427 3250.36 1260)">Rapid</text><text fill="#4CAF50" font-family="Arial,Arial_MSFontService,sans-serif" font-weight="400" font-size="10" transform="matrix(3.62073 0 0 3.62427 3250.36 1304)">Adaptation</text><path d="M-18.1037-18.1037C0-54.311 36.2073-54.311 54.311-18.1037" stroke="#4CAF50" stroke-width="7.24147" fill="none" transform="matrix(1 0 0 1.00098 3540.02 752.893)"/><path d="M61.5525-18.1037C61.5525-14.1043 58.3103-10.8622 54.311-10.8622 50.3116-10.8622 47.0695-14.1043 47.0695-18.1037 47.0695-22.103 50.3116-25.3451 54.311-25.3451 58.3103-25.3451 61.5525-22.103 61.5525-18.1037Z" fill="#4CAF50" transform="matrix(1 0 0 1.00098 3540.02 752.893)"/><text fill="#4CAF50" font-family="Arial,Arial_MSFontService,sans-serif" font-weight="400" font-size="10" transform="matrix(3.62073 0 0 3.62427 3612.44 753)">Rapid</text><text fill="#4CAF50" font-family="Arial,Arial_MSFontService,sans-serif" font-weight="400" font-size="10" transform="matrix(3.62073 0 0 3.62427 3612.44 796)">Adaptation</text><path d="M362.073 362.073 362.073 1448.29" stroke="#666666" stroke-width="3.62073" stroke-dasharray="18.1037 18.1037" fill="none" transform="matrix(1 0 0 1.00098 2435.7 100.525)"/><path d="M724.146 362.073 724.146 1629.33" stroke="#666666" stroke-width="3.62073" stroke-dasharray="18.1037 18.1037" fill="none" transform="matrix(1 0 0 1.00098 2435.7 100.525)"/><path d="M1086.22 362.073 1086.22 1448.29" stroke="#666666" stroke-width="3.62073" stroke-dasharray="18.1037 18.1037" fill="none" transform="matrix(1 0 0 1.00098 2435.7 100.525)"/><text fill="#666666" font-family="Arial,Arial_MSFontService,sans-serif" font-weight="400" font-size="16" transform="matrix(3.62073 0 0 3.62427 1966.82 1804)">System Changes Example Scenarios</text><path d="M2878.48 72.4146C2888.48 72.4146 2896.59 80.5199 2896.59 90.5183L2896.59 343.97C2896.59 353.968 2888.48 362.073 2878.48 362.073L380.177 362.073C370.179 362.073 362.073 353.968 362.073 343.97L362.073 90.5183C362.073 80.5199 370.179 72.4146 380.177 72.4146Z" stroke="#666666" stroke-width="3.62073" fill="#FFFFFF" transform="matrix(1 0 0 1.00098 806.371 1803.93)"/><text fill="#333333" font-family="Arial,Arial_MSFontService,sans-serif" font-weight="400" font-size="14" transform="matrix(3.62073 0 0 3.62427 1240.86 1967)">• </text><text fill="#333333" font-family="Arial,Arial_MSFontService,sans-serif" font-weight="400" font-size="14" transform="matrix(3.62073 0 0 3.62427 1273.45 1967)">Unexpected Weather</text><text fill="#333333" font-family="Arial,Arial_MSFontService,sans-serif" font-weight="400" font-size="14" transform="matrix(3.62073 0 0 3.62427 1751.38 1967)">: </text><text fill="#333333" font-family="Arial,Arial_MSFontService,sans-serif" font-weight="400" font-size="14" transform="matrix(3.62073 0 0 3.62427 1780.35 1967)">Autonomous vehicles adapting to severe weather conditions</text><text fill="#333333" font-family="Arial,Arial_MSFontService,sans-serif" font-weight="400" font-size="14" transform="matrix(3.62073 0 0 3.62427 1240.86 2058)">• </text><text fill="#333333" font-family="Arial,Arial_MSFontService,sans-serif" font-weight="400" font-size="14" transform="matrix(3.62073 0 0 3.62427 1273.45 2058)">Hardware Changes</text><text fill="#333333" font-family="Arial,Arial_MSFontService,sans-serif" font-weight="400" font-size="14" transform="matrix(3.62073 0 0 3.62427 1711.55 2058)">: </text><text fill="#333333" font-family="Arial,Arial_MSFontService,sans-serif" font-weight="400" font-size="14" transform="matrix(3.62073 0 0 3.62427 1740.52 2058)">Robots adjusting to sensor degradation or failures</text><text fill="#333333" font-family="Arial,Arial_MSFontService,sans-serif" font-weight="400" font-size="14" transform="matrix(3.62073 0 0 3.62427 1240.86 2148)">• </text><text fill="#333333" font-family="Arial,Arial_MSFontService,sans-serif" font-weight="400" font-size="14" transform="matrix(3.62073 0 0 3.62427 1273.45 2148)">Environmental Shifts</text><text fill="#333333" font-family="Arial,Arial_MSFontService,sans-serif" font-weight="400" font-size="14" transform="matrix(3.62073 0 0 3.62427 1740.52 2148)">: </text><text fill="#333333" font-family="Arial,Arial_MSFontService,sans-serif" font-weight="400" font-size="14" transform="matrix(3.62073 0 0 3.62427 1769.49 2148)">Space exploration systems handling new terrain conditions</text></g></g></g><g><g><g><path d="M50.6416 132.434 45.2771 148.528 57.5083 160.759 73.602 155.395C77.8716 157.783 82.4096 159.656 87.1208 160.974L94.6312 175.995 111.798 175.995 119.308 160.974C123.964 159.694 128.436 157.819 132.612 155.395L148.706 160.759 160.937 148.528 155.573 132.434C157.96 128.164 159.833 123.626 161.152 118.916L176.173 111.405 176.173 94.2385 160.937 86.9427C159.656 82.2869 157.781 77.8154 155.358 73.6385L160.723 57.5448 148.492 45.3135 132.398 50.6781C128.128 48.29 123.59 46.4171 118.879 45.099L111.583 30.0417 94.4166 30.0417 86.9062 45.0625C82.2502 46.3425 77.7785 48.2177 73.602 50.6416L57.5083 45.2771 45.2771 57.5083 50.6416 73.602C48.2546 77.872 46.3817 82.41 45.0625 87.1208L30.0417 94.4166 30.0417 111.583 45.0625 119.094C46.3405 123.762 48.2158 128.246 50.6416 132.434ZM34.3333 97.129 46.9379 91.0047 48.6911 90.1464 49.2039 88.2667C50.4359 83.8817 52.1811 79.6574 54.4033 75.6814L55.3067 74.0377 54.7144 72.2566 50.1867 58.6756 58.6692 50.191 72.2459 54.7187 74.0806 55.3303 75.7543 54.3604C79.6099 52.1223 83.7383 50.3912 88.0371 49.2104L89.8889 48.7061 90.7473 46.9894 97.0732 34.3333 108.901 34.3333 115.017 46.9508 115.875 48.7018 117.755 49.2147C122.138 50.4485 126.361 52.1944 130.336 54.4162L131.982 55.3217 133.763 54.7273 147.339 50.1996 155.822 58.6842 151.294 72.2652 150.682 74.0999 151.652 75.7715C153.892 79.628 155.623 83.7581 156.802 88.0585L157.32 89.9533 159.09 90.8009 171.881 96.9315 171.881 108.749 159.231 115.075 157.515 115.933 157.011 117.783C155.778 122.167 154.033 126.392 151.811 130.368L150.908 132.012 151.5 133.793 156.028 147.374 147.545 155.858 133.969 151.331 132.134 150.719 130.46 151.689C126.604 153.927 122.475 155.658 118.175 156.839L116.326 157.343 115.467 159.06 109.141 171.72 97.2878 171.72 90.964 159.06 90.1056 157.343 88.2538 156.839C83.8711 155.605 79.649 153.859 75.6749 151.637L74.0291 150.732 72.248 151.326 58.6713 155.854 50.1889 147.369 54.7187 133.793 55.3281 131.958 54.3604 130.284C52.1205 126.428 50.3895 122.298 49.2104 117.997L48.704 116.147 46.9873 115.289 34.3333 108.963Z" stroke="#04813A" stroke-width="2.86093" fill="#C00000" transform="matrix(1 0 0 1.00485 2330 1630)"/><path d="M103 128.786C117.221 128.786 128.75 117.258 128.75 103.036 128.75 88.8151 117.221 77.2864 103 77.2864 88.7787 77.2864 77.25 88.8151 77.25 103.036 77.2948 117.239 88.7971 128.742 103 128.786ZM103 81.5631C114.851 81.5631 124.458 91.1704 124.458 103.021 124.458 114.872 114.851 124.48 103 124.48 91.1489 124.48 81.5416 114.872 81.5416 103.021 81.5571 91.1766 91.1552 81.5785 103 81.5631Z" stroke="#04813A" stroke-width="2.86093" fill="#C00000" transform="matrix(1 0 0 1.00485 2330 1630)"/></g></g></g><text fill="#0A813A" font-family="Arial,Arial_MSFontService,sans-serif" font-weight="700" font-size="73" transform="matrix(1 0 0 1 2596.8 1708)">Dynamic </text><text fill="#0A813A" font-family="Arial,Arial_MSFontService,sans-serif" font-weight="700" font-size="73" transform="matrix(1 0 0 1 2596.8 1796)">Architecture</text><g><g><g><path d="M102.785 173.812C69.525 173.812 42.7021 146.99 42.7021 113.729 42.7021 80.4687 69.525 53.6458 102.785 53.6458 136.046 53.6458 162.869 80.4687 162.869 113.729L162.869 113.729C163.083 146.99 136.26 173.812 102.785 173.812ZM153.642 61.3708 160.079 54.9333C162.439 52.3583 162.439 48.2812 159.865 45.9208 157.29 43.5604 153.427 43.3458 150.852 45.7062L143.556 53.2166C133.256 46.35 121.454 42.0583 109.223 41.2L109.223 32.1875 128.535 32.1875 128.535 19.3125 77.0354 19.3125 77.0354 32.1875 96.3479 32.1875 96.3479 40.9854C56.0062 44.4187 26.3937 80.0395 29.8271 120.167 33.2604 160.294 68.8812 190.121 109.008 186.687 149.135 183.254 178.962 147.633 175.529 107.506 174.242 89.9104 166.302 73.602 153.642 61.3708Z" stroke="#04813A" stroke-width="4.57777" transform="matrix(1 0 0 1.00486 2330 1877)"/><path d="M107.077 113.729 107.077 62.4437C105.575 62.2291 104.287 62.2291 102.785 62.2291 101.283 62.2291 99.9958 62.2291 98.4937 62.4437L98.4937 113.729 107.077 113.729Z" stroke="#04813A" stroke-width="4.57777" transform="matrix(1 0 0 1.00486 2330 1877)"/></g></g></g><g><g><g><path d="M2398.04 2214.78 2395 2211.74 2367.8 2238.95C2367.79 2238.96 2367.78 2238.96 2367.77 2238.95 2367.77 2238.94 2367.76 2238.94 2367.76 2238.94 2360.59 2202.9 2383.99 2167.88 2420.02 2160.71 2450.08 2154.73 2480.34 2170.06 2493.29 2197.84L2497.18 2196.02C2480.7 2160.57 2438.6 2145.18 2403.14 2161.66 2374.69 2174.89 2358.33 2205.26 2362.96 2236.3 2362.96 2236.31 2362.95 2236.32 2362.94 2236.32 2362.94 2236.33 2362.93 2236.32 2362.92 2236.32L2338.35 2211.74 2335.32 2214.78 2366.68 2246.14Z" stroke="#04813A" stroke-width="8.5835"/><path d="M2467.96 2241.59 2471 2244.62 2498.81 2216.81C2498.81 2216.8 2498.83 2216.8 2498.84 2216.81 2498.84 2216.81 2498.84 2216.82 2498.84 2216.82 2504.07 2253.03 2478.95 2286.62 2442.74 2291.84 2439.51 2292.31 2436.26 2292.53 2433 2292.52 2408.37 2292.54 2385.75 2278.94 2374.22 2257.18L2370.43 2259.19C2388.75 2293.75 2431.61 2306.91 2466.16 2288.6 2489.34 2276.31 2503.82 2252.23 2503.81 2226 2503.81 2224.2 2503.73 2222.41 2503.6 2220.61 2503.6 2220.6 2503.61 2220.59 2503.62 2220.59 2503.62 2220.59 2503.63 2220.59 2503.63 2220.6L2527.65 2244.63 2530.69 2241.6 2499.32 2210.22Z" stroke="#04813A" stroke-width="8.5835"/></g></g></g><text fill="#0A813A" font-family="Arial,Arial_MSFontService,sans-serif" font-weight="700" font-size="73" transform="matrix(1 0 0 1 2584.4 1966)">Continuous </text><text fill="#0A813A" font-family="Arial,Arial_MSFontService,sans-serif" font-weight="700" font-size="73" transform="matrix(1 0 0 1 2584.4 2054)">Learning</text><text fill="#0A813A" font-family="Arial,Arial_MSFontService,sans-serif" font-weight="700" font-size="73" transform="matrix(1 0 0 1 2572.63 2256)">Autonomous </text><text fill="#0A813A" font-family="Arial,Arial_MSFontService,sans-serif" font-weight="700" font-size="73" transform="matrix(1 0 0 1 2572.63 2344)">Adaptation</text><text fill="#00B050" font-family="Arial,Arial_MSFontService,sans-serif" font-weight="400" font-size="73" transform="matrix(1 0 0 1 3303.26 1711)">Continuously evolves with </text><text fill="#00B050" font-family="Arial,Arial_MSFontService,sans-serif" font-weight="400" font-size="73" transform="matrix(1 0 0 1 3303.26 1799)">changing conditions</text><text fill="#00B050" font-family="Arial,Arial_MSFontService,sans-serif" font-weight="400" font-size="73" transform="matrix(1 0 0 1 3303.26 1962)">Real</text><text fill="#00B050" font-family="Arial,Arial_MSFontService,sans-serif" font-weight="400" font-size="73" transform="matrix(1 0 0 1 3453.37 1962)">-</text><text fill="#00B050" font-family="Arial,Arial_MSFontService,sans-serif" font-weight="400" font-size="73" transform="matrix(1 0 0 1 3478 1962)">time adaptation </text><text fill="#00B050" font-family="Arial,Arial_MSFontService,sans-serif" font-weight="400" font-size="73" transform="matrix(1 0 0 1 3303.26 2050)">without explicit retraining</text><text fill="#00B050" font-family="Arial,Arial_MSFontService,sans-serif" font-weight="400" font-size="73" transform="matrix(1 0 0 1 3303.26 2229)">Self</text><text fill="#00B050" font-family="Arial,Arial_MSFontService,sans-serif" font-weight="400" font-size="73" transform="matrix(1 0 0 1 3429.3 2229)">-</text><text fill="#00B050" font-family="Arial,Arial_MSFontService,sans-serif" font-weight="400" font-size="73" transform="matrix(1 0 0 1 3453.94 2229)">regulating stability </text><text fill="#00B050" font-family="Arial,Arial_MSFontService,sans-serif" font-weight="400" font-size="73" transform="matrix(1 0 0 1 3303.26 2317)">under perturbation</text><text fill="#0A813A" fill-opacity="0.8" font-family="Arial,Arial_MSFontService,sans-serif" font-weight="700" font-size="92" transform="matrix(1 0 0 1 2452.16 492)">Neuro</text><text fill="#0A813A" fill-opacity="0.8" font-family="Arial,Arial_MSFontService,sans-serif" font-weight="700" font-size="92" transform="matrix(1 0 0 1 2717.42 492)">-</text><text fill="#0A813A" fill-opacity="0.8" font-family="Arial,Arial_MSFontService,sans-serif" font-weight="700" font-size="92" transform="matrix(1 0 0 1 2747.79 492)">Adaptive Dynamical AI Models</text></g></svg>