<svg width="2014" height="2017" xmlns="http://www.w3.org/2000/svg" xmlns:xlink="http://www.w3.org/1999/xlink" xml:space="preserve" overflow="hidden"><g transform="translate(-95 -369)"><path d="M105.5 575.679C105.5 467.333 193.333 379.5 301.68 379.5L1902.21 379.5C2010.55 379.5 2098.39 467.333 2098.39 575.679L2098.39 2179.32C2098.39 2287.67 2010.55 2375.5 1902.21 2375.5L301.68 2375.5C193.333 2375.5 105.5 2287.67 105.5 2179.32Z" stroke="#FF6963" stroke-width="20.625" stroke-miterlimit="8" fill="#FEF3F2" fill-rule="evenodd" fill-opacity="0"/><path d="M503.848 1011.19C572.214 899.095 877.073 960.358 1184.77 1148.02 1492.47 1335.69 1686.48 1578.69 1618.11 1690.79 1549.75 1802.88 1244.89 1741.62 937.192 1553.95 629.496 1366.29 435.481 1123.28 503.848 1011.19Z" stroke="#6D0503" stroke-width="20.625" stroke-miterlimit="8" stroke-opacity="0.501961" fill="#FF6963" fill-rule="evenodd" fill-opacity="0.211765"/><path d="M0 0 247.577 405.927" stroke="#B3A369" stroke-width="2.29167" stroke-miterlimit="8" fill="none" fill-rule="evenodd" transform="matrix(1 0 0 -1 937 1553.93)"/><path d="M1618.27 1690.6 504 1011" stroke="#B3A369" stroke-width="2.29167" stroke-miterlimit="8" fill="none" fill-rule="evenodd"/><path d="M728.861 1155.09C775.468 1078.67 960.375 1106.45 1141.86 1217.14 1323.35 1327.83 1432.69 1479.51 1386.08 1555.93 1339.47 1632.35 1154.57 1604.57 973.08 1493.88 791.594 1383.19 682.253 1231.51 728.861 1155.09Z" stroke="#6D0503" stroke-width="20.625" stroke-miterlimit="8" stroke-opacity="0.501961" fill="#FF6963" fill-rule="evenodd" fill-opacity="0.211765"/><path d="M886.185 1241.19C907.958 1205.5 1003.87 1224.29 1100.4 1283.16 1196.94 1342.04 1257.55 1418.71 1235.78 1454.41 1214 1490.11 1118.09 1471.32 1021.56 1412.44 925.02 1353.56 864.412 1276.89 886.185 1241.19Z" stroke="#6D0503" stroke-width="20.625" stroke-miterlimit="8" stroke-opacity="0.501961" fill="#FF6963" fill-rule="evenodd" fill-opacity="0.211765"/><path d="M1005.8 1317.33C1013.32 1305 1044.13 1310.06 1074.6 1328.65 1105.08 1347.24 1123.69 1372.31 1116.16 1384.64 1108.64 1396.98 1077.83 1391.91 1047.36 1373.32 1016.88 1354.74 998.276 1329.67 1005.8 1317.33Z" stroke="#6D0503" stroke-width="20.625" stroke-miterlimit="8" stroke-opacity="0.501961" fill="#FF6963" fill-rule="evenodd" fill-opacity="0.211765"/><text fill="#C00000" fill-opacity="0.8" font-family="Arial,Arial_MSFontService,sans-serif" font-weight="700" font-size="110" transform="matrix(1 0 0 1 569.571 571)">Current AI Models</text><text fill="#C00000" font-family="Arial,Arial_MSFontService,sans-serif" font-weight="400" font-size="83" transform="matrix(1 0 0 1 311.166 2072)">Static Optimization surface fails to update to </text><text fill="#C00000" font-family="Arial,Arial_MSFontService,sans-serif" font-weight="400" font-size="83" transform="matrix(1 0 0 1 269.916 2171)">environmental changes and requires complete </text><text fill="#C00000" font-family="Arial,Arial_MSFontService,sans-serif" font-weight="400" font-size="83" transform="matrix(1 0 0 1 609.083 2270)">retraining for new scenarios</text></g></svg>