<svg width="2107" height="2118" xmlns="http://www.w3.org/2000/svg" xmlns:xlink="http://www.w3.org/1999/xlink" xml:space="preserve" overflow="hidden"><g transform="translate(-2243 -369)"><rect x="3442.5" y="2083.5" width="905" height="401" stroke="#FFFFFF" stroke-width="4.58333" stroke-miterlimit="8" fill="#FFFFFF"/><path d="M4159.31 458.845C4234.49 566.488 4055.9 821.045 3760.43 1027.42 3464.95 1233.79 3164.47 1313.82 3089.29 1206.18 3014.11 1098.54 3192.7 843.978 3488.17 637.608 3783.65 431.238 4084.13 351.203 4159.31 458.845Z" stroke="#04813A" stroke-width="20.625" stroke-miterlimit="8" fill="#92D050" fill-rule="evenodd" fill-opacity="0.211765"/><path d="M3936.35 616.638C3987.6 690.021 3887.87 848.185 3713.59 969.906 3539.31 1091.63 3356.48 1130.81 3305.23 1057.43 3253.98 984.048 3353.71 825.885 3527.99 704.163 3702.27 582.441 3885.1 543.255 3936.35 616.638Z" stroke="#04813A" stroke-width="20.625" stroke-miterlimit="8" fill="#92D050" fill-rule="evenodd" fill-opacity="0.211765"/><path d="M3792.16 712.093C3816.1 746.374 3760.36 826.652 3667.65 891.4 3574.95 956.147 3480.39 980.844 3456.45 946.563 3432.5 912.282 3488.24 832.003 3580.95 767.256 3673.65 702.509 3768.21 677.812 3792.16 712.093Z" stroke="#04813A" stroke-width="20.625" stroke-miterlimit="8" fill="#92D050" fill-rule="evenodd" fill-opacity="0.211765"/><path d="M3677.29 795.502C3685.57 807.348 3668.55 833.521 3639.28 853.961 3610.02 874.401 3579.59 881.368 3571.31 869.521 3563.04 857.675 3580.05 831.502 3609.32 811.062 3638.59 790.622 3669.02 783.656 3677.29 795.502Z" stroke="#04813A" stroke-width="20.625" stroke-miterlimit="8" fill="#92D050" fill-rule="evenodd" fill-opacity="0.211765"/><path d="M4159.31 455.661C4234.49 563.303 4055.9 817.861 3760.43 1024.23 3464.95 1230.6 3164.47 1310.64 3089.29 1202.99 3014.11 1095.35 3192.7 840.794 3488.17 634.424 3783.65 428.053 4084.13 348.019 4159.31 455.661Z" stroke="#FFFFFF" stroke-width="20.625" stroke-miterlimit="8" stroke-opacity="0.698039" fill="#FFFFFF" fill-rule="evenodd" fill-opacity="0.701961"/><path d="M3442.84 1035.61C3534 1166.12 3449.47 1382.57 3254.04 1519.06 3058.62 1655.55 2826.3 1660.4 2735.15 1529.89 2643.99 1399.37 2728.52 1182.92 2923.94 1046.43 3119.37 909.943 3351.69 905.098 3442.84 1035.61Z" stroke="#04813A" stroke-width="20.625" stroke-miterlimit="8" fill="#92D050" fill-rule="evenodd" fill-opacity="0.211765"/><path d="M3359.29 1076.42C3421.44 1165.4 3378.37 1302.79 3263.11 1383.29 3147.84 1463.8 3004.02 1456.93 2941.88 1367.96 2879.74 1278.98 2922.8 1141.59 3038.07 1061.09 3153.33 980.583 3297.15 987.449 3359.29 1076.42Z" stroke="#04813A" stroke-width="20.625" stroke-miterlimit="8" fill="#92D050" fill-rule="evenodd" fill-opacity="0.211765"/><path d="M3304.62 1086.97C3333.65 1128.54 3307.48 1196.95 3246.17 1239.77 3184.86 1282.59 3111.62 1283.61 3082.59 1242.05 3053.56 1200.48 3079.73 1132.07 3141.04 1089.25 3202.36 1046.43 3275.59 1045.41 3304.62 1086.97Z" stroke="#04813A" stroke-width="20.625" stroke-miterlimit="8" fill="#92D050" fill-rule="evenodd" fill-opacity="0.211765"/><path d="M3261.52 1107.42C3271.55 1121.78 3263.99 1144.38 3244.64 1157.9 3225.28 1171.42 3201.46 1170.74 3191.43 1156.37 3181.39 1142.01 3188.95 1119.41 3208.31 1105.89 3227.67 1092.37 3251.49 1093.06 3261.52 1107.42Z" stroke="#04813A" stroke-width="20.625" stroke-miterlimit="8" fill="#92D050" fill-rule="evenodd" fill-opacity="0.211765"/><path d="M3442.84 1032.43C3534 1162.94 3449.47 1379.39 3254.04 1515.88 3058.62 1652.37 2826.3 1657.21 2735.15 1526.7 2643.99 1396.19 2728.52 1179.74 2923.94 1043.25 3119.37 906.758 3351.69 901.913 3442.84 1032.43Z" stroke="#FFFFFF" stroke-width="20.625" stroke-miterlimit="8" stroke-opacity="0.4" fill="#FFFFFF" fill-rule="evenodd" fill-opacity="0.4"/><path d="M2945.34 1496.75C3027.4 1614.24 2992.23 1780.51 2866.78 1868.13 2741.33 1955.74 2573.12 1931.53 2491.06 1814.04 2409 1696.55 2444.17 1530.28 2569.62 1442.66 2695.07 1355.04 2863.28 1379.26 2945.34 1496.75Z" stroke="#04813A" stroke-width="20.625" stroke-miterlimit="8" fill="#92D050" fill-rule="evenodd" fill-opacity="0.211765"/><path d="M2867.04 1545.07C2922.98 1625.17 2908.35 1731.99 2834.35 1783.67 2760.36 1835.35 2655.03 1812.31 2599.09 1732.21 2543.15 1652.11 2557.78 1545.29 2631.77 1493.61 2705.76 1441.94 2811.1 1464.97 2867.04 1545.07Z" stroke="#04813A" stroke-width="20.625" stroke-miterlimit="8" fill="#92D050" fill-rule="evenodd" fill-opacity="0.211765"/><path d="M2818.35 1564.18C2844.48 1601.6 2833.76 1654.22 2794.4 1681.71 2755.05 1709.2 2701.96 1701.15 2675.82 1663.73 2649.69 1626.31 2660.41 1573.7 2699.77 1546.21 2739.13 1518.72 2792.22 1526.77 2818.35 1564.18Z" stroke="#04813A" stroke-width="20.625" stroke-miterlimit="8" fill="#92D050" fill-rule="evenodd" fill-opacity="0.211765"/><path d="M2778.68 1589.54C2787.71 1602.47 2784.96 1619.99 2772.53 1628.67 2760.11 1637.35 2742.72 1633.9 2733.68 1620.97 2724.65 1608.04 2727.41 1590.52 2739.83 1581.85 2752.26 1573.17 2769.65 1576.61 2778.68 1589.54Z" stroke="#04813A" stroke-width="20.625" stroke-miterlimit="8" fill="#92D050" fill-rule="evenodd" fill-opacity="0.211765"/><path d="M2945.34 1493.57C3027.4 1611.06 2992.23 1777.33 2866.78 1864.94 2741.33 1952.56 2573.12 1928.34 2491.06 1810.85 2409 1693.36 2444.17 1527.09 2569.62 1439.48 2695.07 1351.86 2863.28 1376.08 2945.34 1493.57Z" stroke="#FFFFFF" stroke-width="20.625" stroke-miterlimit="8" stroke-opacity="0.101961" fill="#FFFFFF" fill-rule="evenodd" fill-opacity="0.101961"/><path d="M2253.5 571.456C2253.5 465.441 2339.44 379.5 2445.46 379.5L4103.54 379.5C4209.56 379.5 4295.5 465.441 4295.5 571.456L4295.5 2183.54C4295.5 2289.56 4209.56 2375.5 4103.54 2375.5L2445.46 2375.5C2339.44 2375.5 2253.5 2289.56 2253.5 2183.54Z" stroke="#04813A" stroke-width="20.625" stroke-miterlimit="8" fill="#00B050" fill-rule="evenodd" fill-opacity="0"/><text fill="#0A813A" fill-opacity="0.8" font-family="Arial,Arial_MSFontService,sans-serif" font-weight="700" font-size="110" transform="matrix(1 0 0 1 2352.12 554)">Neuro</text><text fill="#0A813A" fill-opacity="0.8" font-family="Arial,Arial_MSFontService,sans-serif" font-weight="700" font-size="110" transform="matrix(1 0 0 1 2670.09 554)">-</text><text fill="#0A813A" fill-opacity="0.8" font-family="Arial,Arial_MSFontService,sans-serif" font-weight="700" font-size="110" transform="matrix(1 0 0 1 2706.75 554)">Adaptive </text><text fill="#0A813A" fill-opacity="0.8" font-family="Arial,Arial_MSFontService,sans-serif" font-weight="700" font-size="110" transform="matrix(1 0 0 1 2352.12 686)">Dynamical AI </text><text fill="#0A813A" fill-opacity="0.8" font-family="Arial,Arial_MSFontService,sans-serif" font-weight="700" font-size="110" transform="matrix(1 0 0 1 2352.12 818)">Models</text><text fill="#0A813A" font-family="Arial,Arial_MSFontService,sans-serif" font-weight="400" font-size="83" transform="matrix(1 0 0 1 2405.75 2113)">Dynamic surface continuously adapts to changing </text><text fill="#0A813A" font-family="Arial,Arial_MSFontService,sans-serif" font-weight="400" font-size="83" transform="matrix(1 0 0 1 2511.17 2212)">conditions, enabling resilience and real</text><text fill="#0A813A" font-family="Arial,Arial_MSFontService,sans-serif" font-weight="400" font-size="83" transform="matrix(1 0 0 1 3932 2212)">-</text><text fill="#0A813A" font-family="Arial,Arial_MSFontService,sans-serif" font-weight="400" font-size="83" transform="matrix(1 0 0 1 3959.5 2212)">time </text><text fill="#0A813A" font-family="Arial,Arial_MSFontService,sans-serif" font-weight="400" font-size="83" transform="matrix(1 0 0 1 3166.59 2311)">learning</text><path d="M3696.55 876.07 3702.14 876.07 3699.91 886.08 3712.23 886.08 3711.34 890.174 3699.02 890.174 3695.42 905.898C3694.71 908.951 3694.27 911.146 3694.08 912.484 3693.89 913.821 3693.79 914.895 3693.79 915.706 3693.79 919.056 3695.19 920.731 3697.97 920.731 3699.16 920.731 3700.42 920.279 3701.76 919.373 3703.1 918.468 3704.68 916.922 3706.52 914.733L3708.87 917.165C3706.52 920.002 3704.26 922.096 3702.08 923.446 3699.91 924.797 3697.63 925.473 3695.25 925.473 3689.61 925.473 3686.78 922.622 3686.78 916.922 3686.78 915.111 3687.01 913.207 3687.47 911.207L3692.25 890.174 3685.45 890.174 3686.05 887.377C3687.65 887.35 3688.86 887.229 3689.68 887.012 3690.51 886.796 3691.19 886.499 3691.75 886.121 3692.3 885.743 3692.81 885.202 3693.27 884.5 3693.73 883.797 3694.17 882.899 3694.61 881.805 3695.04 880.71 3695.69 878.799 3696.55 876.07Z" fill="#0A813A" fill-rule="evenodd"/><text fill="#000000" fill-opacity="0" font-family="Arial,Arial_MSFontService,sans-serif" font-size="49.4028" x="3685.45" y="919.297">ğ‘¡</text><path d="M3730.35 903.305 3732.17 903.305C3732.13 904.397 3732.1 905.375 3732.08 906.239 3732.06 907.102 3732.04 907.941 3732.03 908.756 3732.02 909.57 3732.02 910.374 3732.02 911.168L3732.02 933.805C3732.02 934.42 3732.04 934.952 3732.08 935.398 3732.12 935.845 3732.18 936.222 3732.27 936.53 3732.36 936.838 3732.48 937.101 3732.63 937.32 3732.78 937.538 3732.95 937.727 3733.15 937.885 3733.39 938.124 3733.7 938.307 3734.1 938.436 3734.5 938.566 3735.01 938.675 3735.62 938.764 3736.24 938.853 3736.98 938.923 3737.84 938.973 3738.7 939.022 3739.74 939.057 3740.95 939.077L3740.95 941.668 3717.33 941.668 3717.33 939.077C3718.5 939.037 3719.5 938.992 3720.31 938.943 3721.13 938.893 3721.82 938.824 3722.4 938.734 3722.97 938.645 3723.43 938.546 3723.78 938.436 3724.13 938.327 3724.43 938.193 3724.69 938.034 3724.97 937.856 3725.21 937.662 3725.4 937.454 3725.6 937.245 3725.76 936.982 3725.88 936.664 3726 936.347 3726.09 935.959 3726.16 935.503 3726.23 935.046 3726.27 934.48 3726.27 933.805L3726.27 912.449C3726.27 911.674 3726.12 911.128 3725.82 910.811 3725.52 910.493 3725.1 910.334 3724.54 910.334 3723.93 910.334 3723.01 910.652 3721.8 911.287 3720.59 911.923 3719.02 912.866 3717.09 914.117 3716.84 913.66 3716.6 913.203 3716.38 912.747 3716.16 912.29 3715.93 911.823 3715.69 911.347 3718.16 909.997 3720.59 908.651 3723.01 907.311 3725.42 905.971 3727.87 904.635 3730.35 903.305Z" fill="#0A813A" fill-rule="evenodd"/><text fill="#000000" fill-opacity="0" font-family="Arial,Arial_MSFontService,sans-serif" font-size="38.3633" x="3715.69" y="936.873">1</text><path d="M3195.43 1295.71 3201.03 1295.71 3198.8 1305.72 3211.12 1305.72 3210.23 1309.81 3197.91 1309.81 3194.3 1325.53C3193.6 1328.59 3193.15 1330.78 3192.96 1332.12 3192.77 1333.46 3192.68 1334.53 3192.68 1335.34 3192.68 1338.69 3194.07 1340.37 3196.85 1340.37 3198.04 1340.37 3199.3 1339.92 3200.64 1339.01 3201.98 1338.1 3203.57 1336.56 3205.4 1334.37L3207.75 1336.8C3205.4 1339.64 3203.14 1341.73 3200.97 1343.08 3198.79 1344.43 3196.51 1345.11 3194.14 1345.11 3188.49 1345.11 3185.67 1342.26 3185.67 1336.56 3185.67 1334.75 3185.9 1332.84 3186.35 1330.84L3191.14 1309.81 3184.33 1309.81 3184.94 1307.01C3186.53 1306.99 3187.74 1306.87 3188.56 1306.65 3189.39 1306.43 3190.08 1306.14 3190.63 1305.76 3191.18 1305.38 3191.69 1304.84 3192.15 1304.14 3192.61 1303.43 3193.06 1302.54 3193.49 1301.44 3193.92 1300.35 3194.57 1298.44 3195.43 1295.71Z" fill="#0A813A" fill-rule="evenodd"/><text fill="#000000" fill-opacity="0" font-family="Arial,Arial_MSFontService,sans-serif" font-size="49.4028" x="3184.33" y="1338.93">ğ‘¡</text><path d="M3228.81 1322.73C3230.88 1322.73 3232.64 1322.97 3234.1 1323.43 3235.56 1323.9 3236.74 1324.53 3237.66 1325.32 3238.57 1326.12 3239.23 1327.07 3239.64 1328.18 3240.04 1329.3 3240.25 1330.5 3240.25 1331.79 3240.25 1332.56 3240.19 1333.28 3240.08 1333.95 3239.97 1334.61 3239.79 1335.27 3239.52 1335.91 3239.25 1336.56 3238.9 1337.21 3238.46 1337.86 3238.02 1338.52 3237.48 1339.21 3236.82 1339.95 3236.33 1340.58 3235.68 1341.32 3234.89 1342.15 3234.09 1342.99 3233.22 1343.88 3232.28 1344.83 3231.34 1345.79 3230.35 1346.78 3229.32 1347.81 3228.28 1348.84 3227.28 1349.87 3226.31 1350.88 3225.34 1351.89 3224.44 1352.88 3223.63 1353.83 3222.81 1354.78 3222.15 1355.66 3221.63 1356.45L3232.65 1356.45C3233.59 1356.45 3234.33 1356.42 3234.89 1356.35 3235.44 1356.28 3235.9 1356.12 3236.27 1355.88 3236.64 1355.65 3236.95 1355.28 3237.21 1354.8 3237.47 1354.31 3237.77 1353.64 3238.1 1352.79L3240.87 1352.79C3240.77 1354.2 3240.68 1355.62 3240.59 1357.05 3240.5 1358.48 3240.41 1359.9 3240.31 1361.3L3215.08 1361.3 3215.08 1359.76C3215.56 1358.68 3216.11 1357.63 3216.75 1356.58 3217.38 1355.54 3218.1 1354.48 3218.89 1353.41 3219.69 1352.34 3220.59 1351.23 3221.6 1350.09 3222.61 1348.95 3223.74 1347.76 3224.97 1346.53 3226.83 1344.66 3228.35 1343.07 3229.53 1341.75 3230.7 1340.43 3231.62 1339.25 3232.3 1338.22 3232.97 1337.19 3233.43 1336.24 3233.68 1335.36 3233.93 1334.49 3234.05 1333.55 3234.05 1332.56 3234.05 1331.55 3233.91 1330.62 3233.62 1329.76 3233.33 1328.91 3232.92 1328.18 3232.38 1327.59 3231.85 1326.99 3231.17 1326.53 3230.34 1326.19 3229.52 1325.85 3228.57 1325.68 3227.5 1325.68 3225.65 1325.68 3224.1 1326.18 3222.85 1327.19 3221.6 1328.19 3220.63 1329.64 3219.93 1331.55L3216.03 1331.55 3216.03 1325.74C3218.57 1324.69 3220.91 1323.92 3223.05 1323.45 3225.18 1322.97 3227.1 1322.73 3228.81 1322.73Z" fill="#0A813A" fill-rule="evenodd"/><text fill="#000000" fill-opacity="0" font-family="Arial,Arial_MSFontService,sans-serif" font-size="38.5718" x="3215.08" y="1356.48">2</text><path d="M2726.25 1720.08 2731.84 1720.08 2729.61 1730.09 2741.93 1730.09 2741.04 1734.18 2728.72 1734.18 2725.12 1749.91C2724.41 1752.96 2723.97 1755.15 2723.78 1756.49 2723.59 1757.83 2723.49 1758.9 2723.49 1759.71 2723.49 1763.06 2724.89 1764.74 2727.67 1764.74 2728.86 1764.74 2730.12 1764.29 2731.46 1763.38 2732.8 1762.48 2734.38 1760.93 2736.22 1758.74L2738.57 1761.17C2736.22 1764.01 2733.96 1766.1 2731.78 1767.45 2729.61 1768.8 2727.33 1769.48 2724.95 1769.48 2719.31 1769.48 2716.48 1766.63 2716.48 1760.93 2716.48 1759.12 2716.71 1757.21 2717.17 1755.21L2721.95 1734.18 2715.15 1734.18 2715.75 1731.38C2717.35 1731.36 2718.56 1731.24 2719.38 1731.02 2720.21 1730.8 2720.89 1730.51 2721.45 1730.13 2722 1729.75 2722.51 1729.21 2722.97 1728.51 2723.43 1727.8 2723.87 1726.91 2724.31 1725.81 2724.74 1724.72 2725.39 1722.81 2726.25 1720.08Z" fill="#0A813A" fill-rule="evenodd"/><text fill="#000000" fill-opacity="0" font-family="Arial,Arial_MSFontService,sans-serif" font-size="49.4028" x="2715.15" y="1763.3">ğ‘¡</text><path d="M2759.57 1747.1C2761.16 1747.1 2762.64 1747.27 2764.02 1747.61 2765.4 1747.95 2766.6 1748.46 2767.61 1749.14 2768.62 1749.83 2769.41 1750.68 2769.98 1751.71 2770.54 1752.73 2770.83 1753.91 2770.83 1755.26 2770.83 1756.54 2770.65 1757.66 2770.29 1758.63 2769.93 1759.6 2769.38 1760.49 2768.64 1761.28 2767.89 1762.08 2766.98 1762.8 2765.9 1763.44 2764.82 1764.09 2763.57 1764.71 2762.16 1765.3L2762.16 1765.66C2763.49 1765.9 2764.73 1766.28 2765.88 1766.81 2767.03 1767.33 2768.04 1768 2768.91 1768.8 2769.77 1769.61 2770.45 1770.53 2770.95 1771.59 2771.44 1772.64 2771.69 1773.8 2771.69 1775.07 2771.69 1776.66 2771.39 1778.13 2770.8 1779.49 2770.2 1780.85 2769.31 1782.03 2768.12 1783.02 2766.93 1784.02 2765.46 1784.79 2763.71 1785.35 2761.96 1785.9 2759.92 1786.18 2757.57 1786.18 2755.73 1786.18 2753.85 1786 2751.94 1785.63 2750.04 1785.26 2748.23 1784.78 2746.52 1784.19L2746.52 1777.75 2750.36 1777.75C2750.68 1778.75 2751.06 1779.59 2751.5 1780.3 2751.93 1781 2752.44 1781.58 2753.03 1782.03 2753.62 1782.47 2754.29 1782.8 2755.06 1782.99 2755.82 1783.19 2756.69 1783.29 2757.66 1783.29 2760.22 1783.29 2762.16 1782.68 2763.48 1781.46 2764.81 1780.24 2765.47 1778.39 2765.47 1775.91 2765.47 1773.26 2764.6 1771.26 2762.86 1769.9 2761.12 1768.54 2758.55 1767.86 2755.13 1767.86L2752.51 1767.86 2752.51 1765C2754.59 1764.91 2756.4 1764.61 2757.92 1764.13 2759.43 1763.64 2760.7 1763.01 2761.71 1762.23 2762.73 1761.46 2763.48 1760.56 2763.98 1759.52 2764.47 1758.49 2764.72 1757.39 2764.72 1756.22 2764.72 1754.31 2764.16 1752.81 2763.02 1751.71 2761.89 1750.6 2760.25 1750.05 2758.11 1750.05 2756.3 1750.05 2754.79 1750.55 2753.57 1751.54 2752.35 1752.53 2751.41 1754.01 2750.75 1755.98L2746.97 1755.98 2746.97 1750.11C2749.31 1749.12 2751.52 1748.37 2753.6 1747.86 2755.67 1747.36 2757.66 1747.1 2759.57 1747.1Z" fill="#0A813A" fill-rule="evenodd"/><text fill="#000000" fill-opacity="0" font-family="Arial,Arial_MSFontService,sans-serif" font-size="39.0781" x="2746.52" y="1781.3">3</text><path d="M3638.36 836.985 3590.51 870.034 3590.55 870.006 3587.5 872.137 3575.7 855.223 3578.77 853.078 3626.64 820.015ZM3570.59 883.94 3542.5 903.539 3542.58 903.483 3520.07 919.506 3508.11 902.704 3530.66 886.653 3558.78 867.027ZM3503.27 931.467 3494.12 937.983 3494.2 937.924 3469.75 955.688 3469.82 955.641 3453.39 967.771 3441.14 951.179 3457.6 939.025 3482.12 921.209 3491.31 914.665ZM3436.92 980.042 3420.43 992.444 3420.5 992.385 3395.44 1011.6 3395.52 1011.54 3387.92 1017.49 3375.21 1001.24 3382.85 995.262 3407.99 975.987 3424.53 963.556ZM3371.68 1030.2 3370.2 1031.35 3370.29 1031.28 3344.68 1051.77 3344.77 1051.69 3323.71 1068.93 3310.65 1052.97 3331.75 1035.7 3357.45 1015.15 3358.96 1013.96ZM3307.95 1082.05 3292.71 1094.82 3292.81 1094.74 3266.2 1117.58 3266.3 1117.5 3261.1 1122.07 3247.47 1106.59 3252.72 1101.97 3279.42 1079.05 3294.7 1066.24ZM3245.61 1135.7 3239.31 1141.24 3239.41 1141.16 3212.02 1165.85 3212.1 1165.77 3199.89 1177.03 3185.91 1161.86 3198.16 1150.57 3225.64 1125.8 3231.99 1120.21ZM3184.72 1191.01 3184.33 1191.37 3184.4 1191.3 3156.27 1217.75 3156.34 1217.69 3139.91 1233.4 3125.66 1218.49 3142.11 1202.75 3170.31 1176.24 3170.75 1175.84ZM3125.09 1247.62 3099.16 1272.82 3099.21 1272.77 3080.88 1290.82 3066.41 1276.12 3084.76 1258.05 3110.72 1232.83ZM3066.26 1305.27 3040.89 1330.57 3040.92 1330.53 3022.58 1349.01 3007.94 1334.49 3026.3 1315.98 3051.7 1290.66ZM3008.1 1363.64 2981.67 1390.51 2981.7 1390.48 2964.81 1407.79 2950.05 1393.39 2966.95 1376.07 2993.39 1349.17ZM2950.45 1422.53 2907.45 1467.02 2892.62 1452.68 2935.62 1408.19ZM2893.11 1481.85 2891.52 1483.5 2891.55 1483.47 2850.33 1526.48 2835.44 1512.21 2876.67 1469.18 2878.28 1467.51ZM2836.06 1541.37 2830.85 1546.81 2793.34 1586.11 2778.42 1571.87 2815.96 1532.54 2821.17 1527.1ZM2848.28 1578.79 2762.47 1603.53 2783.17 1516.66C2784.49 1511.11 2790.05 1507.69 2795.59 1509.01 2801.13 1510.33 2804.55 1515.9 2803.23 1521.44L2786.63 1591.12 2773.74 1578.82 2842.57 1558.97C2848.04 1557.39 2853.75 1560.55 2855.33 1566.02 2856.91 1571.49 2853.75 1577.21 2848.28 1578.79Z" fill="#151813"/></g></svg>